<svg width="24" height="24" viewBox="0 0 24 24" fill="none" xmlns="http://www.w3.org/2000/svg">
    <path d="M4.03116 3.00107L3 4.03223L19.9689 21.0011L21.0001 19.97L4.03116 3.00107Z" fill="#8B9094"/>
    <path d="M12.1562 9.00391L14.9955 11.8431C14.956 11.1029 14.6442 10.4034 14.1201 9.87929C13.5959 9.35514 12.8965 9.04335 12.1562 9.00391Z"
          fill="#8B9094"/>
    <path d="M11.8431 14.9955L9.00391 12.1562C9.04335 12.8965 9.35514 13.5959 9.87929 14.1201C10.4034 14.6442 11.1029 14.956 11.8431 14.9955Z"
          fill="#8B9094"/>
    <path d="M12 16.4992C11.3077 16.4992 10.6247 16.3395 10.0043 16.0325C9.38376 15.7255 8.84246 15.2795 8.42247 14.7292C8.00248 14.1788 7.71513 13.539 7.58278 12.8595C7.45043 12.18 7.47664 11.4791 7.65937 10.8114L4.42172 7.57324C3.09937 8.78449 1.83937 10.3651 0.75 11.9992C1.98844 14.0617 3.6825 16.1823 5.44687 17.3982C7.47093 18.7923 9.67171 19.4992 11.9887 19.4992C13.255 19.5001 14.5117 19.2812 15.7031 18.8523L13.1902 16.3398C12.8024 16.4459 12.4021 16.4995 12 16.4992Z"
          fill="#8B9094"/>
    <path d="M11.9996 7.5C12.6919 7.49997 13.3749 7.65966 13.9953 7.96665C14.6158 8.27364 15.1571 8.71966 15.5771 9.27C15.9971 9.82034 16.2845 10.4602 16.4168 11.1397C16.5492 11.8192 16.523 12.5201 16.3402 13.1878L19.6524 16.5C21.0188 15.2695 22.2807 13.6144 23.2496 12C22.013 9.96422 20.3012 7.84875 18.5068 6.61781C16.4574 5.2125 14.2641 4.5 11.9884 4.5C10.7361 4.5018 9.49429 4.72869 8.32227 5.16984L10.8118 7.65937C11.1988 7.55344 11.5983 7.49984 11.9996 7.5Z"
          fill="#8B9094"/>
</svg>
