<svg width="18" height="26" viewBox="0 0 18 26" fill="none" xmlns="http://www.w3.org/2000/svg">
    <path d="M15.5188 11.8141C15.3208 11.6161 14.8985 11.3398 14.4009 11.0673L12.9173 9.51461L11.2769 11.0673H10.8267L8.87886 8.24609C7.8083 8.25386 6.94037 9.128 6.94814 10.1986L4.18752 8.55895C3.55327 8.84154 3.10921 9.47502 3.10921 10.2149V10.9601L0.00390625 14.1958L0.0163273 15.8921L7.76716 24.2213C7.76716 24.2213 15.9325 12.3529 15.952 12.3761C15.8518 12.203 15.5537 11.8312 15.5188 11.8141Z"
          fill="#EF9645"/>
    <path d="M14.4024 1.56274C14.4024 0.703351 13.699 0 12.8396 0C11.9803 0 11.2769 0.703351 11.2769 1.56274V11.0688H14.4016V1.56274H14.4024ZM10.8274 11.0681V9.48126C10.8212 8.62497 10.1217 7.9356 9.26544 7.94181C8.40915 7.94802 7.71978 8.64749 7.72599 9.50377L7.73531 11.0688H10.8274V11.0681ZM1.48744 9.4735H1.61786C2.43999 9.4735 3.1053 10.1396 3.1053 10.9617V14.1959C3.1053 15.018 2.43999 15.6841 1.61786 15.6841H1.48744C0.665311 15.6841 0 15.018 0 14.1959V10.9617C0 10.1396 0.665311 9.4735 1.48744 9.4735ZM6.85806 11.7714L6.81458 11.8196C6.4466 12.2302 6.2106 12.7597 6.2106 13.3551C6.2106 13.404 6.22069 13.4506 6.22458 13.4987C6.25873 14.0251 6.46368 14.5018 6.78974 14.8759C6.73462 14.9761 6.6632 15.0646 6.58867 15.15C6.30454 15.4737 5.89774 15.6841 5.43428 15.6841C4.57721 15.6841 3.88163 14.9885 3.88163 14.1314V9.4735C3.88163 9.13114 3.99575 8.8175 4.18362 8.56054C4.4662 8.1747 4.9188 7.92085 5.43428 7.92085C6.29134 7.92085 6.98693 8.61643 6.98693 9.4735V11.6301C6.93957 11.6728 6.90231 11.7256 6.85806 11.7714Z"
          fill="#FFDC5D"/>
    <path d="M1.59968 16.4626C2.39464 16.4626 3.09411 16.0543 3.50168 15.4363C3.59716 15.5784 3.71206 15.7049 3.83627 15.8222C4.75622 16.6878 6.19164 16.6327 7.07122 15.7554C7.18922 15.6374 7.30645 15.5186 7.3965 15.3766L7.39417 15.3742C7.55021 15.4635 7.76215 15.6863 8.53848 15.6863H10.508C10.2208 15.9029 9.95837 16.17 9.71305 16.4626C8.75973 17.6015 8.15031 19.2621 8.15031 21.1206C8.15031 21.3349 8.32421 21.5088 8.53848 21.5088C8.75274 21.5088 8.92664 21.3349 8.92664 21.1206C8.92664 19.1425 9.66881 17.4136 10.772 16.4626C11.3402 15.9728 12.0017 15.6863 12.7112 15.6863C13.2647 15.7476 13.3688 14.91 12.8083 14.91H8.53848C7.68141 14.91 6.98582 14.2144 6.98582 13.3573C6.98582 12.5003 7.68141 11.8047 8.53848 11.8047H14.7491C15.4152 11.8047 16.0378 12.2674 16.2342 12.9032L17.0781 15.6863C17.158 15.9464 17.4499 17.1388 17.3971 17.3872C17.3971 21.1206 13.7515 25.0022 9.3148 25.0022C4.23996 25.0022 0.120004 20.9413 0.00976562 15.8928L0.0206341 15.9006C0.420442 16.246 0.933592 16.4626 1.50342 16.4626H1.59968Z"
          fill="#FFDC5D"/>
</svg>
