<svg width="53" height="53" viewBox="0 0 53 53" fill="none" xmlns="http://www.w3.org/2000/svg">
<path d="M43.25 48.7188H9.25V3.78125H32.6054L43.25 14.4259V48.7188Z" fill="white" stroke="#D0D6DB"/>
<path d="M42.1094 15.3125H31.7188V4.92188L42.1094 15.3125Z" fill="#D0D6DB"/>
<path d="M44.8438 35H7.65625V21.875H44.8438V35Z" fill="#DD2025"/>
<path d="M18.2048 24.6948C19.1733 24.6948 19.9281 24.9298 20.4692 25.3998C21.0247 25.8555 21.3024 26.4893 21.3024 27.301C21.3024 28.127 21.0247 28.7679 20.4692 29.2236C19.9281 29.6794 19.1733 29.9072 18.2048 29.9072H16.5599V32.8125H14.7441V24.6948H18.2048ZM17.9912 28.4546C18.4612 28.4546 18.8172 28.362 19.0593 28.1769C19.3157 27.9775 19.4438 27.6998 19.4438 27.3438C19.4438 26.6032 18.9596 26.2329 17.9912 26.2329H16.5599V28.4546H17.9912Z" fill="white"/>
<path d="M25.9166 24.6948C27.2126 24.6948 28.2166 25.0651 28.9287 25.8057C29.655 26.532 30.0182 27.5146 30.0182 28.7537C30.0182 29.9642 29.6479 30.9469 28.9073 31.7017C28.181 32.4422 27.1841 32.8125 25.9166 32.8125H22.755V24.6948H25.9166ZM25.8739 31.2744C26.6002 31.2744 27.1556 31.0537 27.5402 30.6122C27.9389 30.1707 28.1383 29.5512 28.1383 28.7537C28.1383 27.9561 27.9389 27.3366 27.5402 26.8951C27.1556 26.4537 26.6002 26.2329 25.8739 26.2329H24.5922V31.2744H25.8739Z" fill="white"/>
<path d="M37.4736 26.3184H33.4575V28.0487H36.5123V29.5868H33.4575V32.8125H31.6204V24.6948H37.4736V26.3184Z" fill="white"/>
</svg>
