<svg width="25" height="25" viewBox="0 0 25 25" fill="none" xmlns="http://www.w3.org/2000/svg">
    <g clip-path="url(#clip0_20_2247)">
        <path d="M23.9111 10.2089H22.9445V10.1591H12.1445V14.9591H18.9263C17.9369 17.7533 15.2783 19.7591 12.1445 19.7591C8.16833 19.7591 4.94453 16.5353 4.94453 12.5591C4.94453 8.58288 8.16833 5.35908 12.1445 5.35908C13.9799 5.35908 15.6497 6.05148 16.9211 7.18248L20.3153 3.78828C18.1721 1.79088 15.3053 0.559082 12.1445 0.559082C5.51753 0.559082 0.144531 5.93208 0.144531 12.5591C0.144531 19.1861 5.51753 24.5591 12.1445 24.5591C18.7715 24.5591 24.1445 19.1861 24.1445 12.5591C24.1445 11.7545 24.0617 10.9691 23.9111 10.2089Z"
              fill="#FFC107"/>
        <path d="M1.52734 6.97368L5.46994 9.86508C6.53674 7.22388 9.12034 5.35908 12.1437 5.35908C13.9791 5.35908 15.6489 6.05148 16.9203 7.18248L20.3145 3.78828C18.1713 1.79088 15.3045 0.559082 12.1437 0.559082C7.53454 0.559082 3.53734 3.16128 1.52734 6.97368Z"
              fill="#FF3D00"/>
        <path d="M12.1439 24.5589C15.2435 24.5589 18.0599 23.3727 20.1893 21.4437L16.4753 18.3009C15.2301 19.248 13.7084 19.7602 12.1439 19.7589C9.02274 19.7589 6.37254 17.7687 5.37414 14.9913L1.46094 18.0063C3.44694 21.8925 7.48014 24.5589 12.1439 24.5589Z"
              fill="#4CAF50"/>
        <path d="M23.9111 10.2089H22.9445V10.1591H12.1445V14.9591H18.9263C18.4531 16.2889 17.6005 17.451 16.4741 18.3017L16.4759 18.3005L20.1899 21.4433C19.9271 21.6821 24.1445 18.5591 24.1445 12.5591C24.1445 11.7545 24.0617 10.9691 23.9111 10.2089Z"
              fill="#1976D2"/>
    </g>
    <defs>
        <clipPath id="clip0_20_2247">
            <rect width="24" height="24" fill="white" transform="translate(0.144531 0.559082)"/>
        </clipPath>
    </defs>
</svg>
