<svg width="25" height="25" viewBox="0 0 25 25" fill="none" xmlns="http://www.w3.org/2000/svg">
    <g clip-path="url(#clip0_20_2219)">
        <path d="M17.1445 9.55908C17.1445 10.4879 16.828 11.6558 16.2854 12.9445C15.7497 14.2168 15.0275 15.5287 14.2929 16.7225C13.56 17.9135 12.8253 18.9697 12.2733 19.7287C12.2292 19.7894 12.1862 19.8482 12.1445 19.9049C12.1029 19.8482 12.0599 19.7894 12.0158 19.7287C11.4637 18.9697 10.7291 17.9135 9.99619 16.7225C9.26152 15.5287 8.53938 14.2168 8.00367 12.9445C7.46106 11.6558 7.14453 10.4879 7.14453 9.55908C7.14453 6.79766 9.38311 4.55908 12.1445 4.55908C14.906 4.55908 17.1445 6.79766 17.1445 9.55908Z"
              stroke="black" stroke-width="2"/>
        <circle cx="12.1445" cy="9.55908" r="1" stroke="black" stroke-width="2"/>
    </g>
    <defs>
        <clipPath id="clip0_20_2219">
            <rect width="18" height="14" fill="white" transform="translate(5.14453 21.5591) rotate(-90)"/>
        </clipPath>
    </defs>
</svg>
