<svg width="25" height="25" viewBox="0 0 25 25" fill="none" xmlns="http://www.w3.org/2000/svg">
    <g clip-path="url(#clip0_20_2250)">
        <path d="M13.4386 0.559084C13.7914 0.559084 14.107 0.778684 14.2258 1.10748L15.073 3.45588C15.3766 3.53148 15.637 3.60708 15.8578 3.68628C16.099 3.77268 16.4098 3.90348 16.7938 4.08228L18.7666 3.03828C18.9276 2.95297 19.112 2.92218 19.292 2.95052C19.472 2.97886 19.6379 3.06482 19.765 3.19548L21.5002 4.98948C21.7306 5.22828 21.7954 5.57748 21.6658 5.88228L20.7406 8.05068C20.8942 8.33268 21.0166 8.57388 21.1102 8.77548C21.211 8.99508 21.3358 9.29748 21.4846 9.68748L23.641 10.6115C23.965 10.7495 24.1654 11.0735 24.1438 11.4203L23.9854 13.9103C23.9745 14.072 23.9165 14.2271 23.8183 14.3561C23.7202 14.4852 23.5864 14.5826 23.4334 14.6363L21.391 15.3623C21.3322 15.6443 21.271 15.8855 21.2062 16.0895C21.1017 16.4045 20.9823 16.7145 20.8486 17.0183L21.8746 19.2863C21.947 19.4456 21.9665 19.624 21.9302 19.7952C21.8939 19.9665 21.8038 20.1216 21.673 20.2379L19.7218 21.9803C19.5933 22.0945 19.4329 22.1668 19.2622 22.1874C19.0915 22.208 18.9186 22.1759 18.7666 22.0955L16.7554 21.0299C16.4407 21.1965 16.1161 21.3436 15.7834 21.4703L14.905 21.7991L14.125 23.9591C14.0672 24.1173 13.9629 24.2543 13.8258 24.3521C13.6888 24.45 13.5253 24.5042 13.357 24.5075L11.077 24.5591C10.9041 24.5636 10.7341 24.5145 10.5904 24.4184C10.4466 24.3224 10.3361 24.1841 10.2742 24.0227L9.35497 21.5903C9.04135 21.4831 8.73082 21.3671 8.42377 21.2423C8.17263 21.1336 7.92529 21.0163 7.68217 20.8907L5.40217 21.8651C5.25194 21.9292 5.08632 21.9482 4.92546 21.9199C4.76461 21.8915 4.61546 21.8171 4.49617 21.7055L2.80897 20.1227C2.68336 20.0054 2.59781 19.8515 2.56443 19.6829C2.53105 19.5143 2.55153 19.3394 2.62297 19.1831L3.60337 17.0471C3.47298 16.7941 3.3521 16.5363 3.24097 16.2743C3.11125 15.9536 2.9912 15.629 2.88097 15.3011L0.732972 14.6471C0.558373 14.5943 0.406085 14.4854 0.29976 14.3372C0.193434 14.189 0.139022 14.0098 0.144972 13.8275L0.228972 11.5223C0.234951 11.3719 0.281936 11.226 0.364846 11.1003C0.447755 10.9747 0.563434 10.8741 0.699372 10.8095L2.95297 9.72708C3.05737 9.34428 3.14857 9.04668 3.22897 8.82948C3.34218 8.53938 3.4679 8.25431 3.60577 7.97508L2.62897 5.91108C2.55484 5.75434 2.53233 5.57813 2.56468 5.40779C2.59702 5.23744 2.68255 5.08175 2.80897 4.96308L4.49377 3.37188C4.61188 3.26049 4.75966 3.1856 4.91932 3.15622C5.07899 3.12684 5.24375 3.14423 5.39377 3.20628L7.67137 4.14708C7.92337 3.97908 8.15137 3.84348 8.35777 3.73428C8.60377 3.60348 8.93257 3.46668 9.34657 3.31908L10.1386 1.10988C10.1971 0.948206 10.3042 0.808542 10.445 0.709962C10.5859 0.611381 10.7538 0.558691 10.9258 0.559084H13.4386ZM12.1738 8.98188C10.1734 8.98188 8.55217 10.5839 8.55217 12.5615C8.55217 14.5391 10.1734 16.1423 12.1738 16.1423C14.173 16.1423 15.7942 14.5391 15.7942 12.5615C15.7942 10.5839 14.1742 8.98188 12.1738 8.98188Z"
              fill="#8B9094"/>
    </g>
    <defs>
        <clipPath id="clip0_20_2250">
            <rect width="24" height="24" fill="white" transform="translate(0.144531 0.559082)"/>
        </clipPath>
    </defs>
</svg>
