<svg width="25" height="25" viewBox="0 0 25 25" fill="none" xmlns="http://www.w3.org/2000/svg">
<path d="M23.8768 12.5589C23.8768 5.97654 18.6236 0.640503 12.1435 0.640503C5.66335 0.640503 0.410156 5.97654 0.410156 12.5589C0.410156 18.5077 4.70086 23.4384 10.3102 24.3325V16.004H7.331V12.5589H10.3102V9.93312C10.3102 6.94606 12.0619 5.29612 14.742 5.29612C16.0258 5.29612 17.3685 5.5289 17.3685 5.5289V8.46194H15.889C14.4314 8.46194 13.9768 9.38066 13.9768 10.3232V12.5589H17.231L16.7108 16.004H13.9768V24.3325C19.5861 23.4384 23.8768 18.5077 23.8768 12.5589Z" fill="#1877F2"/>
<path d="M16.7118 16.0043L17.232 12.5591H13.9779V10.3234C13.9779 9.38092 14.4324 8.4622 15.89 8.4622H17.3695V5.52916C17.3695 5.52916 16.0268 5.29639 14.743 5.29639C12.0629 5.29639 10.3112 6.94633 10.3112 9.93338V12.5591H7.33203V16.0043H10.3112V24.3327C10.9177 24.4293 11.5306 24.4777 12.1445 24.4775C12.7682 24.4775 13.3805 24.4279 13.9779 24.3327V16.0043H16.7118Z" fill="white"/>
</svg>
