<svg width="25" height="25" viewBox="0 0 25 25" fill="none" xmlns="http://www.w3.org/2000/svg">
<g clip-path="url(#clip0_20_2239)">
<path d="M4.17569 3.5599L3.14453 4.59106L20.1134 21.56L21.1446 20.5288L4.17569 3.5599Z" fill="#8B9094"/>
<path d="M12.3008 9.56299L15.14 12.4022C15.1006 11.662 14.7888 10.9625 14.2646 10.4384C13.7405 9.91422 13.041 9.60243 12.3008 9.56299Z" fill="#8B9094"/>
<path d="M11.9877 15.5548L9.14844 12.7156C9.18788 13.4558 9.49967 14.1553 10.0238 14.6794C10.548 15.2036 11.2474 15.5154 11.9877 15.5548Z" fill="#8B9094"/>
<path d="M12.1445 17.0585C11.4522 17.0585 10.7693 16.8988 10.1488 16.5919C9.52829 16.2849 8.98699 15.8388 8.567 15.2885C8.14702 14.7382 7.85967 14.0983 7.72731 13.4188C7.59496 12.7393 7.62117 12.0384 7.8039 11.3707L4.56625 8.13257C3.24391 9.34382 1.98391 10.9244 0.894531 12.5585C2.13297 14.621 3.82703 16.7416 5.5914 17.9576C7.61546 19.3516 9.81625 20.0585 12.1333 20.0585C13.3995 20.0594 14.6563 19.8405 15.8476 19.4116L13.3347 16.8991C12.9469 17.0053 12.5466 17.0589 12.1445 17.0585Z" fill="#8B9094"/>
<path d="M12.1441 8.05859C12.8364 8.05856 13.5194 8.21825 14.1399 8.52525C14.7604 8.83224 15.3017 9.27825 15.7217 9.82859C16.1416 10.3789 16.429 11.0187 16.5614 11.6983C16.6937 12.3778 16.6675 13.0787 16.4848 13.7464L19.7969 17.0586C21.1634 15.8281 22.4252 14.173 23.3941 12.5586C22.1576 10.5228 20.4457 8.40734 18.6513 7.17641C16.6019 5.77109 14.4087 5.05859 12.1329 5.05859C10.8806 5.06039 9.63882 5.28728 8.4668 5.72844L10.9563 8.21797C11.3434 8.11203 11.7429 8.05843 12.1441 8.05859Z" fill="#8B9094"/>
</g>
<defs>
<clipPath id="clip0_20_2239">
<rect width="24" height="24" fill="white" transform="translate(0.144531 0.559082)"/>
</clipPath>
</defs>
</svg>
