<svg width="25" height="25" viewBox="0 0 25 25" fill="none" xmlns="http://www.w3.org/2000/svg">
<g clip-path="url(#clip0_20_2221)">
<path d="M12.1445 15.5588C13.8014 15.5588 15.1445 14.2157 15.1445 12.5588C15.1445 10.902 13.8014 9.55884 12.1445 9.55884C10.4877 9.55884 9.14453 10.902 9.14453 12.5588C9.14453 14.2157 10.4877 15.5588 12.1445 15.5588Z" fill="#8B9094"/>
<path d="M23.1536 11.7435C21.9133 9.82533 20.3041 8.19596 18.5003 7.03111C16.5048 5.74111 14.3017 5.05908 12.1295 5.05908C10.1364 5.05908 8.17656 5.62861 6.30437 6.75174C4.39515 7.89689 2.66547 9.56986 1.16312 11.7238C0.993521 11.9672 0.900116 12.2555 0.894774 12.5522C0.889432 12.8488 0.972396 13.1403 1.13312 13.3897C2.37109 15.327 3.96437 16.9588 5.74 18.1077C7.73921 19.4028 9.89078 20.0591 12.1295 20.0591C14.3191 20.0591 16.5269 19.3827 18.5139 18.1034C20.3167 16.9424 21.9226 15.3069 23.1583 13.3728C23.3135 13.1293 23.3955 12.8463 23.3947 12.5575C23.3938 12.2686 23.3102 11.9861 23.1536 11.7435ZM12.1455 17.0591C11.2554 17.0591 10.3854 16.7952 9.6454 16.3007C8.90538 15.8062 8.3286 15.1034 7.98801 14.2812C7.64741 13.4589 7.5583 12.5541 7.73193 11.6812C7.90556 10.8083 8.33415 10.0064 8.96348 9.3771C9.59282 8.74776 10.3946 8.31918 11.2676 8.14555C12.1405 7.97191 13.0453 8.06103 13.8675 8.40162C14.6898 8.74222 15.3926 9.31899 15.8871 10.059C16.3815 10.799 16.6455 11.6691 16.6455 12.5591C16.6441 13.7521 16.1696 14.8959 15.3259 15.7395C14.4823 16.5832 13.3385 17.0577 12.1455 17.0591Z" fill="#8B9094"/>
</g>
<defs>
<clipPath id="clip0_20_2221">
<rect width="24" height="24" fill="white" transform="translate(0.144531 0.559082)"/>
</clipPath>
</defs>
</svg>
