<svg width="25" height="25" viewBox="0 0 25 25" fill="none" xmlns="http://www.w3.org/2000/svg">
    <g clip-path="url(#clip0_20_2228)">
        <line x1="4.14453" y1="14.5591" x2="19.1445" y2="14.5591" stroke="black" stroke-width="2"/>
        <line x1="4.14453" y1="10.5591" x2="19.1445" y2="10.5591" stroke="black" stroke-width="2"/>
        <path d="M7.14453 5.78985C7.14453 5.78985 9.82263 4.55908 11.6445 4.55908C12.4819 4.55908 13.5 4.81905 14.356 5.10003C15.4667 5.46465 16.1445 6.53902 16.1445 7.70806V7.70806C16.1445 8.80191 15.5477 9.80861 14.5881 10.3336L9.03273 13.3724C7.86853 14.0092 7.14453 15.2452 7.14453 16.5722V16.5722C7.14453 18.1886 8.22575 19.624 9.78487 20.0505V20.0505C10.9907 20.3802 12.2717 20.3018 13.4282 19.8273L16.1445 18.7129"
              stroke="black" stroke-width="2"/>
    </g>
    <defs>
        <clipPath id="clip0_20_2228">
            <rect width="15" height="20" fill="white" transform="translate(4.14453 2.55908)"/>
        </clipPath>
    </defs>
</svg>
