<svg width="25" height="25" viewBox="0 0 25 25" fill="none" xmlns="http://www.w3.org/2000/svg">
<circle cx="12.1445" cy="12.5591" r="12" fill="#D0D6DB"/>
<path d="M11.207 14.8716H12.7695V14.7466C12.7695 14.2153 13.1445 13.7778 14.082 13.0903C15.4883 12.0591 16.0508 11.1528 16.0508 9.90283C16.0508 7.87158 14.4883 6.52783 12.1758 6.52783C9.76953 6.52783 8.11328 8.02783 7.89453 10.3403L9.61328 10.6841C9.76953 9.12158 10.707 8.12158 12.1445 8.12158C13.3633 8.12158 14.1445 8.84033 14.1445 10.0278C14.1445 10.8091 13.832 11.2466 12.7383 12.1528C11.457 13.1841 11.1445 13.7153 11.207 14.8716ZM10.832 18.5591H13.2695V16.1216H10.832V18.5591Z" fill="white"/>
</svg>
