<svg width="25" height="25" viewBox="0 0 25 25" fill="none" xmlns="http://www.w3.org/2000/svg">
<rect x="0.144531" y="0.559082" width="24" height="24" rx="2" fill="#6ABD7C"/>
<path d="M5.04375 8.71531H7.66875V18.5591H5.04375V8.71531ZM4.94531 5.23718H7.76719V7.46843H4.94531V5.23718Z" fill="white"/>
<path d="M19.7109 5.43406V18.5591H17.3484L17.2172 17.1809C16.4297 18.2091 15.3688 18.7231 14.0344 18.7231C12.7656 18.7231 11.7484 18.2637 10.9828 17.345C10.2172 16.4262 9.83438 15.1903 9.83438 13.6372C9.83438 12.1059 10.2172 10.8809 10.9828 9.96218C11.7703 9.02156 12.7875 8.55124 14.0344 8.55124C15.2594 8.55124 16.2766 8.98874 17.0859 9.86374V5.43406H19.7109ZM14.8547 16.5575C15.5984 16.5575 16.1672 16.3059 16.5609 15.8028C16.9766 15.2778 17.1844 14.5559 17.1844 13.6372C17.1844 12.7184 16.9766 12.0075 16.5609 11.5044C16.1672 10.9794 15.5984 10.7169 14.8547 10.7169C14.1109 10.7169 13.5312 10.9794 13.1156 11.5044C12.7 12.0294 12.4922 12.7403 12.4922 13.6372C12.4922 14.5341 12.7 15.245 13.1156 15.77C13.5312 16.295 14.1109 16.5575 14.8547 16.5575Z" fill="white"/>
</svg>
