<svg width="25" height="25" viewBox="0 0 25 25" fill="none" xmlns="http://www.w3.org/2000/svg">
<path d="M4.59521 14.4673L11.5478 20.9985C11.7873 21.2235 11.9071 21.336 12.0482 21.3637C12.1118 21.3762 12.1772 21.3762 12.2408 21.3637C12.382 21.336 12.5017 21.2235 12.7412 20.9985L19.6939 14.4673C21.65 12.6297 21.8876 9.60568 20.2423 7.48515L19.933 7.08642C17.9648 4.54966 14.0142 4.9751 12.6312 7.87273C12.4358 8.28204 11.8532 8.28204 11.6579 7.87273C10.2749 4.9751 6.32425 4.54967 4.35607 7.08643L4.04672 7.48515C2.40148 9.60568 2.63903 12.6297 4.59521 14.4673Z" stroke="black" stroke-width="2"/>
</svg>
