<svg width="25" height="25" viewBox="0 0 25 25" fill="none" xmlns="http://www.w3.org/2000/svg">
    <g clip-path="url(#clip0_20_2244)">
        <circle cx="12.1445" cy="12.5591" r="12" fill="#8B9094"/>
        <path d="M7.14453 18.5591C7.14453 18.5591 6.14453 18.5591 6.14453 17.5591C6.14453 16.5591 7.14453 13.5591 12.1445 13.5591C17.1445 13.5591 18.1445 16.5591 18.1445 17.5591C18.1445 18.5591 17.1445 18.5591 17.1445 18.5591H7.14453ZM12.1445 12.5591C12.9402 12.5591 13.7032 12.243 14.2659 11.6804C14.8285 11.1178 15.1445 10.3547 15.1445 9.55908C15.1445 8.76343 14.8285 8.00037 14.2659 7.43776C13.7032 6.87515 12.9402 6.55908 12.1445 6.55908C11.3489 6.55908 10.5858 6.87515 10.0232 7.43776C9.4606 8.00037 9.14453 8.76343 9.14453 9.55908C9.14453 10.3547 9.4606 11.1178 10.0232 11.6804C10.5858 12.243 11.3489 12.5591 12.1445 12.5591Z"
              fill="white"/>
    </g>
    <defs>
        <clipPath id="clip0_20_2244">
            <rect width="24" height="24" fill="white" transform="translate(0.144531 0.559082)"/>
        </clipPath>
    </defs>
</svg>
