<svg width="25" height="25" viewBox="0 0 25 25" fill="none" xmlns="http://www.w3.org/2000/svg">
<path d="M12.148 10.1084C11.5129 10.1084 10.9182 10.3417 10.4679 10.7682C10.0197 11.1947 9.77123 11.758 9.77123 12.3595C9.77123 12.9611 10.0197 13.5243 10.4679 13.9508C10.9182 14.3753 11.5129 14.6107 12.148 14.6107C12.7831 14.6107 13.3778 14.3753 13.8281 13.9508C14.2762 13.5243 14.5247 12.9611 14.5247 12.3595C14.5247 11.758 14.2762 11.1947 13.8281 10.7682C13.6081 10.5583 13.3464 10.3919 13.0579 10.2786C12.7695 10.1653 12.4602 10.1075 12.148 10.1084ZM20.9052 14.8461L19.5161 13.7215C19.582 13.3393 19.616 12.949 19.616 12.5607C19.616 12.1724 19.582 11.7801 19.5161 11.3999L20.9052 10.2754C21.0102 10.1903 21.0853 10.0769 21.1206 9.95045C21.1559 9.82395 21.1496 9.69028 21.1028 9.56721L21.0837 9.5149C20.7014 8.50237 20.1285 7.56381 19.393 6.74471L19.3547 6.70246C19.2654 6.60298 19.1464 6.53147 19.0133 6.49736C18.8802 6.46324 18.7393 6.46812 18.6092 6.51134L16.8845 7.09274C16.2473 6.59785 15.5379 6.20757 14.769 5.93598L14.4355 4.22799C14.4104 4.09933 14.3445 3.98095 14.2466 3.8886C14.1487 3.79626 14.0235 3.7343 13.8875 3.71097L13.8302 3.70091C12.7257 3.51181 11.5618 3.51181 10.4573 3.70091L10.3999 3.71097C10.264 3.7343 10.1388 3.79626 10.0409 3.8886C9.943 3.98095 9.8771 4.09933 9.85194 4.22799L9.51635 5.94403C8.75474 6.21778 8.04525 6.60712 7.41571 7.09677L5.67828 6.51134C5.54821 6.46777 5.40723 6.46272 5.27407 6.49686C5.1409 6.531 5.02186 6.60271 4.93275 6.70246L4.89452 6.74471C4.16024 7.56468 3.58756 8.503 3.20381 9.5149L3.1847 9.56721C3.08912 9.81868 3.16771 10.1003 3.38223 10.2754L4.78832 11.412C4.72248 11.7902 4.69062 12.1765 4.69062 12.5587C4.69062 12.945 4.72248 13.3312 4.78832 13.7054L3.38648 14.8421C3.28154 14.9271 3.20644 15.0405 3.17116 15.167C3.13587 15.2934 3.14208 15.4271 3.18895 15.5502L3.20806 15.6025C3.59251 16.6144 4.15962 17.5499 4.89877 18.3727L4.937 18.4149C5.02632 18.5144 5.14537 18.5859 5.27846 18.62C5.41155 18.6542 5.55242 18.6493 5.68252 18.6061L7.41996 18.0206C8.05291 18.5135 8.75808 18.9038 9.5206 19.1734L9.85619 20.8894C9.88135 21.0181 9.94725 21.1364 10.0451 21.2288C10.143 21.3211 10.2682 21.3831 10.4042 21.4064L10.4615 21.4165C11.5769 21.6066 12.7191 21.6066 13.8344 21.4165L13.8918 21.4064C14.0277 21.3831 14.153 21.3211 14.2508 21.2288C14.3487 21.1364 14.4146 21.0181 14.4398 20.8894L14.7733 19.1814C15.5421 18.9078 16.2516 18.5196 16.8888 18.0247L18.6134 18.6061C18.7435 18.6496 18.8845 18.6547 19.0177 18.6205C19.1508 18.5864 19.2699 18.5147 19.359 18.4149L19.3972 18.3727C20.1364 17.5459 20.7035 16.6144 21.0879 15.6025L21.107 15.5502C21.1984 15.3007 21.1198 15.0211 20.9052 14.8461ZM12.148 15.8962C10.0856 15.8962 8.41399 14.313 8.41399 12.3595C8.41399 10.4061 10.0856 8.82286 12.148 8.82286C14.2104 8.82286 15.882 10.4061 15.882 12.3595C15.882 14.313 14.2104 15.8962 12.148 15.8962Z" fill="black"/>
</svg>
